<svg xmlns="http://www.w3.org/2000/svg" xml:space="preserve" id="Layer_1" x="0" y="0" class="show_show__wrapper__graphic__5Waiy" version="1.1" viewBox="0 0 500 500"><style>.st0{fill:#fff}.st1{fill:#231f20}.st3{fill:#d1d3d4}</style><path id="Sea" d="M37.8 213.5h422.3v183.1H37.8z" style="fill:#68b3fd"/><g id="Fleeting_ice_big"><path d="M85.3 293.9v-.2c-.1-1.1-10.2-3.1-10.2-3.1l-4-18.9-.4-1-.3-.8 1.2.4 12.2 4.5 1.1 8.1 2.2 15.7c-.9-2.1-1.6-4-1.8-4.7z" class="st0"/><path d="M87 299.5c-.3 0-.6-.2-.7-.5-.9-2.6-1.5-4.2-1.6-4.9-.8-.6-5.6-1.8-9.7-2.6-.3-.1-.5-.3-.6-.5l-4-19-.7-1.7c-.1-.4 0-.8.4-.9.2-.1.3-.1.5 0l13.3 4.9c.2.1.4.3.4.6l3.4 23.9c.1.4-.2.7-.5.8l-.2-.1zm-11.3-9.4c6.5 1.3 8.9 2.2 9.8 2.8L83 275.4l-11.4-4.2.1.3 4 18.6z" class="st1"/><path d="M207.6 240.6s52.1 9.3 57.6 13.3 45.7 30.5 45.7 30.5l-29.1 11.7-26.6 3.1-15.2 16-19.5-5.8s-42.5 8-49.5 5.8-52.2-17.8-52.2-17.8l-27.1-6-8.9-15.3-12.5-6.1s60.9-25.8 74.9-26.3 62.4-3.1 62.4-3.1z" class="st0"/><path d="M175 316.3c-1.4.1-2.8-.1-4.2-.4-6.9-2.2-51.8-17.6-52.2-17.8l-27-6c-.2 0-.4-.2-.5-.3l-8.8-15.1-12.4-6c-.4-.2-.5-.6-.4-.9.1-.2.2-.3.4-.4 2.5-1 61.2-25.9 75.2-26.3s61.9-3.1 62.4-3.1h.2c2.1.4 52.3 9.4 57.9 13.4 5.5 4 45.3 30.2 45.7 30.5.2.1.3.4.3.7 0 .3-.2.5-.4.6l-29.1 11.7h-.2l-26.3 3.1-15 15.8c-.2.2-.4.3-.7.2l-19.4-5.7c-2.9.4-33.1 6-45.5 6zm-82.8-25.5 26.8 6c.5.2 45.4 15.6 52.3 17.8s48.7-5.7 49.1-5.8h.3l19.1 5.6 14.9-15.7c.1-.1.3-.2.4-.2l26.5-3.1 27.8-11.2c-6.5-4.3-39.7-26.2-44.6-29.8-4.2-3.1-39.2-10-57.2-13.2-2.3.1-48.8 2.7-62.4 3.1-12.6.4-64 21.8-73.3 25.6l11.2 5.5.3.3 8.8 15.1z" class="st1"/><path d="m310.9 284.4-7.8 23.5-22.8 14.6 1.5-26.4z" class="st0"/><path d="M280.3 323.1c-.1 0-.2 0-.4-.1s-.4-.4-.3-.6l1.5-26.3c0-.3.2-.5.4-.6l29.1-11.7c.3-.1.5 0 .7.1.2.2.3.5.2.7l-7.8 23.5c-.1.2-.2.3-.3.4L280.6 323c-.1.1-.2.1-.3.1zm2.2-26.5-1.4 24.5 21.5-13.7 7.2-21.8-27.3 11z" class="st1"/><path d="m281.8 296.1-1.5 26.4-26 6.5-3 .8 3.9-30.6z" class="st3"/><path d="M251.3 330.5c-.4 0-.7-.3-.7-.7v-.1l3.9-30.5c0-.3.3-.6.6-.6l26.6-3.1c.2 0 .4 0 .6.2.1.1.2.3.2.5l-1.5 26.3c0 .3-.2.6-.5.6l-29 7.3c-.1.1-.1.1-.2.1zm4.5-30.6-3.7 29 27.5-6.9 1.5-25-25.3 2.9z" class="st1"/><path d="m255.2 299.2-.9 29.8-3 .8-10.7 15.6-.5-30.2z" class="st0"/><path d="M240.6 346.1c-.4 0-.7-.3-.7-.7l-.5-30.2c0-.2.1-.4.2-.5l15.2-16c.2-.2.5-.3.8-.2.3.1.4.4.4.7l-1 29.8c0 .3-.2.6-.5.7l-2.8.7-10.5 15.5c-.1.1-.3.2-.6.2zm.2-30.6.5 27.8 9.5-13.9c.1-.1.2-.2.4-.3l2.5-.6.8-27.4-13.7 14.4z" class="st1"/><path d="m240.6 345.4-13.6-1.6-6.5-34.3 19.6 5.7z" class="st3"/><path d="m240.6 346.1-13.7-1.7c-.3 0-.6-.3-.6-.6l-6.4-34.3c-.1-.2 0-.5.2-.6.2-.2.4-.2.7-.1l19.5 5.8c.3.1.5.4.5.7l.5 30.2c0 .2-.1.4-.2.5-.2.1-.3.1-.5.1zm-13-3 12.3 1.5-.5-28.9-17.9-5.3 6.1 32.7z" class="st1"/><path d="m227 343.8-55.9 1.6v-30.2l49.3-5.7h.1z" class="st0"/><path d="M171.1 346.1c-.2 0-.4-.1-.5-.2-.1-.1-.2-.3-.2-.5v-30.2c0-.4.3-.6.6-.7l49.4-5.8c.4 0 .7.2.9.6l6.4 34.3c0 .2 0 .4-.1.6-.1.2-.3.3-.5.3l-56 1.6zm.7-30.2v28.9l54.4-1.6-6.1-32.9-48.3 5.6z" class="st1"/><path d="m171.1 345.4-49.2-23.3-3.1-24.7 2.4.8 1.1.4 1.3.5.7.2 45.8 15.6.4.1.4.1c.2.1.5 14.2.2 30.3z" class="st3"/><path d="M171.1 346.1c-.1 0-.2 0-.3-.1l-49.2-23.3c-.2-.1-.4-.3-.4-.5l-3.1-24.7c0-.2.1-.5.2-.6.2-.2.4-.2.7-.1l5.6 1.9 46.6 15.8c.3.1.5.4.5.6 0 .1.3 14.2.1 30.2 0 .5-.3.8-.7.8zm0-.7zm-48.5-23.7 47.9 22.6c.2-13.8 0-26 0-28.6l-.3-.1-50.4-17.2 2.8 23.3z" class="st1"/><path d="m121.9 322.2-28-6.6-2.2-24.2 27.1 6.1z" class="st0"/><path d="M121.9 322.9h-.2l-28-6.6c-.3-.1-.5-.3-.6-.6L91 291.5c0-.2.1-.4.2-.6.2-.1.4-.2.6-.1l27.1 6c.3.1.5.3.5.6l3.1 24.7c0 .2-.1.5-.2.6-.1.1-.2.2-.4.2zm-27.4-7.8 26.6 6.2-2.9-23.3-25.7-5.7 2 22.8z" class="st1"/><path d="M93.9 315.6s-5.3-12.2-6.9-16.9c-.8-2.2-1.5-4.1-1.6-4.8l-1.4-9.5-1.2-8.2 8.9 15.3 2.2 24.1z" class="st3"/><path d="M93.9 316.3c-.3 0-.5-.2-.6-.4-.1-.1-5.3-12.3-6.9-16.9-.9-2.6-1.5-4.2-1.6-4.9v-.2l-2.5-17.7c-.1-.3.1-.6.5-.8.3-.1.7 0 .8.3l8.9 15.3c0 .1.1.2.1.3l2.2 24.2c0 .3-.2.7-.5.7l-.4.1zM84 279.6l2 14.2c.1.4.4 1.6 1.6 4.7 1 2.9 3.5 8.8 5.2 12.8L91 291.7l-7-12.1z" class="st1"/></g><g id="bear"><path d="M119.6 244.7c.1 6.6.4 13.3 2.2 19.6s5.4 12.4 10.8 16.1c1.9 1.3 4.3 2.3 6.4 1.5 3.3-1.4 3.3-5.9 2.9-9.4-1.5-11.6-3.1-23.7-8.6-34.2-1.7-3.2-5.7-11.6-10.3-9.3-4.2 2.1-3.4 12.1-3.4 15.7z" class="st1"/><path d="M137.4 282.9c-1.9-.1-3.7-.8-5.1-1.9-5-3.5-9-9.4-11.1-16.5-1.9-6.7-2.2-13.7-2.3-19.8v-1.2c-.1-4.6-.3-13.1 3.9-15.2 5-2.5 9 5.4 11 9.1l.3.5c5.5 10.7 7.1 22.8 8.7 34.4.7 5.4-.4 8.9-3.3 10.1-.7.4-1.4.6-2.1.5zm-17.1-38.2c.1 6 .3 12.9 2.2 19.4 2 6.8 5.7 12.4 10.5 15.8 1.6 1.1 3.8 2.2 5.8 1.4 2.8-1.2 2.9-5.4 2.5-8.7-1.5-11.6-3.1-23.5-8.5-34l-.3-.5c-1.7-3.4-5.3-10.4-9.1-8.5-3.4 1.7-3.2 9.9-3.1 13.9v1.2zm165.4-87.3s11.6-6.5 10.3-1-5.7 9.8-6 10.4" class="st1"/><path d="M289.9 167.4c-.1 0-.3 0-.4-.1-.3-.2-.4-.6-.2-.9v-.1c.1-.2.3-.4.5-.6 1.2-1.4 4.4-5.1 5.5-9.6.1-.4.2-.9-.1-1.1-1-.8-5.5.9-9.2 3-.3.2-.8.1-1-.2-.2-.3-.1-.8.3-.9 1.4-.8 8.4-4.6 10.7-2.9.7.6 1 1.7.6 2.6-1.2 4.8-4.5 8.7-5.8 10.1l-.4.4c-.1.2-.3.3-.5.3zM180.6 281.2c8.7-2.4 14.9-5.1 24.2-2.5 8.3 2.3 16.2 7.8 24.8 6.9-3.5-5.9-7-11.8-9.9-17.9-3.8-8-6.6-16.4-10.8-24.2-1.3-2.5-3.8-4.2-6.6-4.7-5.3-1.2-10.7 1.9-14.8 5.5-6.5 5.7-11.5 12.9-14.4 21.1-1.1 2.7-1.6 5.7-1.5 8.6.2 3 1.8 5.7 4.4 7.3" class="st1"/><path d="M227.6 286.4c-5.2 0-10.1-2-14.9-4-2.7-1.2-5.4-2.2-8.1-3-7.7-2.1-13.2-.6-20.1 1.4-1.2.4-2.4.7-3.7 1.1-.4.1-.8-.1-.9-.5-.1-.4.1-.7.5-.8 1.3-.4 2.5-.7 3.7-1 6.8-2 12.8-3.7 20.9-1.5 2.8.8 5.6 1.8 8.3 3 5.1 2.1 9.9 4.1 15.1 3.9-3.3-5.5-6.6-11.1-9.4-17-1.6-3.3-3-6.8-4.4-10.1-1.9-4.7-3.9-9.5-6.4-14-1.2-2.3-3.5-3.9-6.1-4.4-5.3-1.2-10.6 2.2-14.2 5.3-6.4 5.6-11.3 12.8-14.2 20.8-1.1 2.6-1.6 5.5-1.4 8.4.2 2.8 1.7 5.3 4 6.7.4.1.5.5.4.9-.1.4-.5.5-.9.4 0 0-.1 0-.1-.1-2.8-1.7-4.5-4.6-4.8-7.8-.2-3.1.3-6.1 1.5-9 3-8.2 8-15.6 14.6-21.4 3.8-3.3 9.5-6.9 15.4-5.6 3 .5 5.6 2.4 7 5.1 2.5 4.6 4.5 9.4 6.4 14.1 1.4 3.3 2.8 6.8 4.4 10.1 2.9 6.1 6.4 12.1 9.9 17.9.2.3.1.8-.3 1-.1.1-.2.1-.3.1-.5-.1-1.2 0-1.9 0z" class="st1"/><path d="M247.5 192.4s-8.3 62.6-6 68.3 17.4 17 12.5 21.1-23.4-2.6-23.4-2.6-24.5-32.1-21.9-52.8 24.5-45.7 27.9-44.5 10.9 10.5 10.9 10.5z" class="st1"/><path d="M248.6 283.8c-7.3 0-17.8-3.8-18.3-4-.1 0-.2-.1-.3-.2-1-1.3-24.7-32.5-22-53.3 2.4-18.5 19.7-40.2 26.4-44.4.7-.6 1.6-.8 2.5-.7 3.5 1.2 10.5 9.8 11.2 10.8.1.1.2.3.1.5-2.3 17.4-7.9 63.4-6.1 68 .8 1.9 3.2 4.7 5.9 7.6 3.9 4.3 7.8 8.7 7.6 12-.1.9-.5 1.8-1.2 2.4-1.3.9-3.4 1.3-5.8 1.3zm-17.7-5.2c5.2 1.9 18.8 5.9 22.5 2.7.4-.3.7-.9.7-1.4.2-2.6-3.8-7-7.3-10.9-2.7-3-5.2-5.8-6.1-8-2.2-5.6 5.3-63.1 6-68.4-2.2-2.7-7.9-9.2-10.4-10.1 0 0-.4-.1-1.7.8-6.7 4.6-23.2 25.7-25.4 43.1-2.4 19.5 19.9 49.7 21.7 52.2z" class="st1"/><path d="M131.2 273.6c-4.7-7.9-7.6-16.7-8.6-25.9-1.5-12.5-4.2-24.4 1.2-36.5 3.3-7.4 10.8-13.7 17.8-17.5 7.3-4.1 15.6-3 23-8.1 5.3-3.7 9.7-8.6 14-13.5l11.7-13.2c2.6-2.9 5.2-5.9 8.6-8 7.8-4.9 17.7-4.3 26.4-3.6 15.8 1.3 29.2-2.5 44.9 1.8 11.9 3.3 25.1 9.8 27.4 23.2.7 3.6.7 7.3 0 10.9 0 0 6.8 10.2 4.9 16.2-1.2 3.8-11 3.3-13.9 2.5-5.1-1.4-9.5-5.6-14.8-6.2-6.2-.7-11.6.2-17.4-2.6-2.2 2.6-4.6 5.1-7.2 7.2-3.5 2.7-7.8 3.4-11.2 5.5-1.9 1.1-10.6 21.2-10.6 31.7s5.3 35.1 5.3 35.1 17.4 8.6 16.3 13.2-25.7 3.4-29.1 0-3.8-11.7-8.7-16.2-13.6-15.1-13.6-15.1 4.1 15.9-7.9 26.4c0 0 20 2.2 19.6 7.9s-9.4 2.7-13.6 3c-8.1.7-58.9 2.2-56.7-8.6-3-2.7-5.6-6-7.8-9.6z" class="st0"/><path d="M179.6 293.2c-15 0-35.4-1.1-40.1-6.4-.8-.8-1.2-2-1.1-3.1-3-2.9-5.6-6.1-7.8-9.7-4.7-8-7.6-16.9-8.7-26.2l-.6-4.8c-1.5-11-2.9-21.3 1.9-32 2.9-6.5 9.7-13.2 18.1-17.9 3.4-1.7 6.9-2.9 10.6-3.5 4.1-.9 8.4-1.9 12.4-4.6 5.3-3.7 9.7-8.6 13.9-13.3l11.7-13.2c2.6-2.9 5.3-6 8.7-8.1 7.7-4.8 17.5-4.5 26.9-3.7 5.8.4 11.7.4 17.5 0 9.2-.4 17.9-.8 27.6 1.9 16.6 4.6 26 12.6 27.9 23.8.7 3.6.7 7.3.1 10.9 1.1 1.7 6.6 10.8 4.8 16.6-1.4 4.5-11.8 3.8-14.7 2.9-2.3-.8-4.5-1.8-6.6-3-2.7-1.5-5.3-2.9-8.1-3.2-1.9-.2-3.7-.3-5.4-.3-4-.1-7.7-.3-11.7-2.1-2.1 2.5-4.4 4.9-7 6.9-2.1 1.5-4.3 2.6-6.7 3.4-1.6.6-3.1 1.3-4.6 2.1-1.4 1-10.3 20.4-10.3 31.1 0 9.7 4.6 31.7 5.2 34.6 3.6 1.8 17.5 9.2 16.3 13.9-.3 1.1-1.5 2-3.6 2.6-6.7 1.9-23.5.9-26.6-2.2-1.6-1.6-2.6-4.2-3.6-7-1.2-3.4-2.5-6.8-5.1-9.2-4.2-4.2-8.2-8.6-12-13.2.6 4.8.7 15.4-7.5 23.5 5 .7 19.1 3 18.8 8.4 0 1.1-.5 2.2-1.4 2.9-2 1.7-5.6 1.3-8.8 1-1.3-.2-2.7-.2-4-.2-2.1.1-8.5.4-16.4.4zm36.5-145.6c-6.1 0-11.9.9-16.8 4-3.3 2-5.9 5-8.4 7.9l-11.7 13.2c-4.3 4.8-8.7 9.8-14.1 13.6-4.2 2.9-8.6 3.9-12.9 4.8-3.6.8-7 1.6-10.2 3.4-8.1 4.5-14.7 11-17.5 17.2-4.6 10.4-3.2 20.5-1.8 31.3l.6 4.8c1 9 3.9 17.8 8.5 25.6 2.2 3.5 4.8 6.8 7.8 9.6.2.2.3.4.2.6-.2.8.1 1.7.7 2.3 6.4 7.1 47 6.2 55.3 5.4 1.4-.1 2.9 0 4.3.2 2.9.3 6.3.6 7.8-.7.6-.5.9-1.2.9-1.9.2-3.7-11.5-6.3-19-7.1-.3 0-.5-.2-.6-.5-.1-.3 0-.6.2-.7 11.6-10.2 7.7-25.6 7.7-25.8-.1-.3.1-.6.4-.8.3-.2.7-.1.9.2.1.1 8.7 10.6 13.5 15 2.8 2.6 4.2 6.4 5.4 9.8.9 2.6 1.9 5.1 3.3 6.5 2.3 2.3 18.1 3.9 25.3 1.9 1.5-.4 2.5-1 2.6-1.6.7-2.7-8.9-8.9-15.9-12.4-.2-.1-.3-.3-.4-.5-.2-1-5.3-24.7-5.3-35.2 0-10.7 8.7-31 10.9-32.3 1.5-.9 3.1-1.6 4.8-2.2 2.3-.8 4.4-1.9 6.4-3.2 2.6-2.1 5-4.5 7.1-7.1.2-.2.6-.3.8-.2 3.9 1.9 7.7 2 11.6 2.2 1.8.1 3.6.1 5.5.4 3.1.4 5.9 1.9 8.6 3.4 2 1.2 4.1 2.1 6.3 2.9 2.8.8 12 1.1 13-2 1.8-5.6-4.8-15.5-4.8-15.6-.1-.2-.1-.4-.1-.6.7-3.5.7-7.1 0-10.6-1.9-10.6-11-18.2-27-22.7-9.5-2.6-18.1-2.2-27.1-1.8-5.9.4-11.8.4-17.6 0-3.2-.5-6.2-.7-9.2-.7z" class="st1"/><path d="M197.7 254.6c-1.8-6.5-1.9-13.4-.4-20 0 0-18.9-18.1-13.6-36.6" class="st0"/><path d="M197.7 255.4c-.3 0-.6-.2-.7-.5-1.8-6.5-2-13.4-.5-20-2.5-2.5-18.5-19.4-13.5-37 .1-.4.5-.6.9-.5s.6.5.5.9c-5.1 17.9 13.2 35.7 13.4 35.9.2.2.3.4.2.7-1.5 6.5-1.4 13.2.4 19.6.1.4-.1.8-.5.9-.1-.1-.2-.1-.2 0z" class="st1"/><path d="M272.2 166.7s-.6-9.4-7.9-7.6-4 12.1-1.3 16.4c-1.4 1.7-2 4-1.7 6.2" class="st0"/><path d="M261.2 182.5c-.3 0-.6-.3-.7-.6-.3-2.2.2-4.5 1.5-6.4-1.9-3.4-4-9.4-2.4-13.4.8-1.9 2.4-3.3 4.4-3.7 1.8-.6 3.8-.3 5.4.8 3.1 2.2 3.4 7.2 3.4 7.4.1.4-.2.7-.6.8-.4.1-.7-.2-.8-.6v-.1s-.3-4.5-2.8-6.4c-1.2-.8-2.8-1-4.2-.6-1.6.3-2.9 1.4-3.4 2.8-1.5 3.6.8 9.6 2.5 12.5.2.3.1.6-.1.8-1.3 1.6-1.8 3.6-1.5 5.6.1.4-.2.7-.6.8l-.1.3zm40.1 14.4c.8-.1 1.5.2 2 .8.3.7.2 1.5-.3 2.1-.8 1.2-1.9 2.1-3.3 2.5-1.7.6-3.5.3-4.9-.8-4.8-4.4 4.2-4.7 6.5-4.6z" class="st1"/><path d="M219.4 184.4c-.1 0-.3 0-.4-.1-.1-.1-12.4-8.1-4.9-20.4.2-.3.6-.4 1-.2s.4.6.2 1c-6.7 11.1 4 18.2 4.5 18.5.3.2.4.6.2 1-.2.1-.4.2-.6.2z" class="st3"/><path d="M147.2 233.5s20.2-6.3 33 0 17.5 21.2 17.5 21.2" class="st0"/><path d="M197.7 255.4c-.3 0-.6-.2-.7-.5 0-.1-4.7-14.6-17.1-20.8s-32.3 0-32.5 0c-.4.1-.8-.1-.9-.5-.1-.4.1-.8.5-.9.8-.3 20.6-6.3 33.5 0s17.6 21 17.9 21.6c.1.4-.1.8-.5.9-.1.1-.2.1-.2.2z" class="st1"/><path d="M251.2 192c-.1 0-.3 0-.4-.1-.3-.2-7.1-4.7-10.7-9.7-.2-.3-.2-.7.1-1h.1c.3-.2.7-.2 1 .1 3.4 4.8 10.2 9.3 10.3 9.4.3.2.4.7.2 1-.1.2-.3.3-.6.3z" class="st3"/><path d="M269.9 168.7v.3c-.1.1-.1.2-.2.2l-2.8 1.9c-.7.6-1.5.9-2.4.9-.4-1.2-.7-2.4-.9-3.7-.3-1.7-.4-5.4 2.1-5.1 2.2.3 3.7 3.7 4.2 5.5z" class="st1"/><path d="M264.6 172.7h-.2c-.3 0-.5-.2-.6-.5-.4-1.2-.7-2.5-.9-3.8-.2-1.4-.4-3.9.8-5.2.5-.6 1.3-.8 2.1-.7 3.1.3 4.6 5.3 4.8 5.9.1.3.1.5 0 .8-.1.2-.3.4-.5.5l-2.8 1.9c-.8.7-1.7 1-2.7 1.1zm.9-8.8c-.3 0-.5.1-.7.3-.7.7-.7 2.5-.5 4 .2 1 .4 2 .7 3 .6-.2 1.1-.4 1.5-.8l2.7-1.8c-.6-1.9-1.9-4.6-3.5-4.8l-.2.1zm3.7 5 .7-.2-.7.2zm18.5 10.6c.2 1.8-1.1 3.4-2.9 3.6-1.6.2-3.2-.9-3.6-2.5l6.5-1.1zm10.1 1.4c-.5 1.7-2.3 2.8-4.1 2.3-1.6-.5-2.6-2.1-2.3-3.7l6.4 1.4z" class="st1"/></g><g id="Fleeting_ice_small"><path d="m418.3 280-21.1 15.5-43.6-7.8 13.8-14.6 27.8-6.7z" class="st0"/><path d="M397.2 296.2h-.2l-43.5-7.8c-.2-.1-.4-.2-.5-.4-.1-.2 0-.5.2-.7l13.8-14.7c.1-.1.2-.2.3-.2l27.7-6.7c.2 0 .4 0 .5.1l23.1 13.5c.2.1.3.3.4.6 0 .2-.1.5-.3.6L397.6 296c-.1.2-.3.2-.4.2zm-42.2-8.9 42 7.5 20-14.8-21.9-12.9-27.3 6.5-12.8 13.7z" class="st1"/><path d="m353.6 287.7 9.4 14.7 34.2 8.7v-15.6z" class="st0"/><path d="M397.2 311.8h-.2l-34.2-8.7c-.2 0-.3-.2-.4-.3l-9.3-14.7c-.1-.2-.1-.5 0-.8.2-.2.4-.3.7-.3l43.5 7.8c.3.1.6.4.6.7V311c0 .5-.3.8-.7.8zm-33.8-10 33.1 8.4v-14l-41.4-7.4 8.3 13z" class="st1"/><path d="m397.2 311.1 15.5-12.7 5.6-18.4-21.1 15.5z" class="st3"/><path d="M397.2 311.8c-.1 0-.2 0-.3-.1-.2-.1-.4-.4-.4-.6v-15.5c0-.2.1-.4.3-.6l21.1-15.5c.3-.2.7-.2 1 .1.1.2.2.4.1.6l-5.6 18.4c0 .1-.1.3-.2.3l-15.6 12.7c-.1.1-.3.2-.4.2zm.7-15.9v13.7l14.2-11.6 4.9-16.2-19.1 14.1z" class="st1"/></g><g id="iceberg"><path d="M316.7 210.8c-.1 0-.3 0-.4-.1-.3-.2-.4-.6-.2-1l14.8-20.8c1-1.6 2.2-3 3.6-4.1 1-.7 2.2-1.2 3.4-1.5.4-.1.9-.3 1.3-.4 6-2.3 10.9-10.1 15.6-17.7 2.2-3.7 4.6-7.3 7.2-10.8 1.4-1.7 2.9-3.3 4.7-3.1 1.4.2 2.6 1.4 3.7 2.7 5.7 6.7 10.8 13.8 15.3 21.3l8.9-18.4c.1-.2.3-.4.6-.4s.5.1.6.4c11.8 21.9 26.4 38.9 42.1 49 .3.2.4.7.2 1-.2.3-.6.4-.9.2-15.7-10-30.2-26.7-42-48.3l-8.8 18.3c-.1.2-.3.4-.6.4s-.5-.1-.6-.3c-4.7-7.8-10-15.3-15.9-22.2-1-1.1-1.9-2.1-2.8-2.2-1.2-.1-2.4 1.2-3.4 2.6-2.6 3.4-5 7-7.1 10.6-4.9 7.8-9.9 15.8-16.3 18.3-.5.2-.9.3-1.4.5-1.1.3-2.1.7-3 1.3-1.3 1.1-2.4 2.4-3.3 3.8l-14.8 20.8c-.1 0-.3.1-.5.1z" class="st3"/><path d="M407.7 172.2c-.4 0-.7-.3-.7-.7 0-.1 0-.3.1-.4l13.6-20.2c2.1-3 4-6.2 5.6-9.4.4-.9.8-1.7 1.1-2.6.9-2.2 2-4.4 3.3-6.4.3-.5.8-.9 1.4-1 1-.1 1.6.8 1.8 1.1.9 1.4 1.6 3 2.1 4.6.5 1.6 1.2 3.1 2.1 4.4.8 1.2 2.2 1.8 3.6 1.7 1.6-.2 3-1.2 3.7-2.7.2-.3.6-.5.9-.3.1 0 .1.1.2.2 2.9 3.2 5.9 6.3 9.1 9.2.3.2.4.6.3 1-.2.3-.6.4-1 .3-.1-.1-.2-.1-.2-.2-3-2.7-5.9-5.6-8.6-8.6-1 1.5-2.6 2.4-4.3 2.6-1.9.1-3.7-.7-4.8-2.2-1-1.5-1.8-3.1-2.3-4.8-.5-1.5-1.1-2.9-1.9-4.2-.3-.5-.5-.5-.5-.5l-.4.4c-1.3 1.9-2.3 3.9-3.1 6.1l-1.2 2.7c-1.7 3.4-3.6 6.6-5.8 9.6l-13.6 20.2s-.2.1-.5.1zm-305.3 31.9c-.2 0-.4-.1-.6-.3l-13.6-20.2c-2.2-3-4.1-6.2-5.8-9.6-.4-.9-.8-1.8-1.1-2.6-1.5-3.9-2.4-5.8-6.1-5-1.7.4-2.9 2.3-4.2 4.2-1.5 2.4-3.1 4.8-5.7 4.9-.8 0-1.6-.3-2.3-.8-5.2-3.5-8.8-8.8-12.2-14-3.2-4.9-6.6-10-11.4-13.3-.3-.2-.4-.6-.2-1 .2-.3.7-.4 1-.2 5 3.5 8.4 8.7 11.7 13.7S59 170.2 64 173.5c.4.3.9.5 1.4.6 1.9-.1 3.2-2.1 4.6-4.3s2.8-4.3 5-4.8c5-1.1 6.4 2.4 7.7 5.9.3.9.7 1.7 1.1 2.6 1.6 3.3 3.5 6.5 5.6 9.4L103 203c.2.3.1.8-.2 1-.1 0-.2.1-.4.1z" class="st3"/><path d="M68 197.6c-.3 0-.6-.2-.7-.5-2.4-8.5-4.4-22.7-4.4-22.9-.1-.4.2-.7.6-.8.4 0 .7.2.8.6 0 .1 2 14.2 4.4 22.7.1.4-.1.8-.5.9-.1-.1-.1 0-.2 0zm273.9 2.8c-.4 0-.7-.3-.7-.7-.3-6.1 4.3-21.1 4.5-21.7.1-.4.5-.6.8-.5s.6.5.5.8v.1c0 .1-4.8 15.4-4.4 21.2 0 .5-.3.8-.7.8zm102.7-25.7c-.3 0-.6-.2-.7-.5-1.8-7.2-6.9-24.1-6.9-24.3-.1-.4.2-.7.6-.8.3-.1.6.1.8.4.1.2 5.2 17.2 7 24.3.1.4-.1.7-.5.8-.2.1-.2.1-.3.1z" class="st3"/></g><path id="waves" d="M259.3 383.7c-.4 0-.7-.3-.7-.7s.3-.7.7-.7c9.7-1.1 19.1-4 27.7-8.6.3-.1.6-.1.8.1 8.5 7.8 21 9.2 31.1 3.5.2-.1.4-.1.6 0 9.9 3.9 20.9 3.9 30.8 0 .4-.1.8 0 .9.4.1.4 0 .8-.4.9-10.1 4-21.4 4.1-31.5.1-10.4 5.7-23.2 4.3-32.1-3.5-8.7 4.6-18.1 7.5-27.9 8.5zm80.5-46.6c-.3 0-.6-.2-.7-.5-.1-.4.1-.8.4-.9 8.5-3.2 16.2-8.2 22.6-14.6.3-.3.7-.3 1 0 3.7 3.5 8.1 7.4 13.4 8.7 4.8 1.2 11.1-.1 13.6-4.9.1-.2.3-.3.5-.4.2 0 .5 0 .6.2 8.1 8.7 22.4 10.7 32.5 4.5.3-.2.8-.1 1 .2.2.3.1.8-.2 1-10.4 6.3-25 4.5-33.6-4.1-3.1 4.8-9.7 6.1-14.7 4.8-5.4-1.4-9.8-5.1-13.5-8.6-6.5 6.3-14.2 11.2-22.7 14.4-.1.2-.1.2-.2.2zM63 370.4c-.2 0-.4-.1-.5-.2-.3-.3-.2-.7 0-1l19.9-17.8c.5-.5 1-.8 1.7-1 1.8-.4 3.1 1.2 3.8 2.2 7.9 9 21.4 10.2 30.8 2.7.6-.7 1.4-1.1 2.3-1.2.6.1 1.3.3 1.8.7 8.6 5 19.1 5.1 27.8.3.3-.2.8 0 .9.3.2.3.1.7-.2.9-9.1 5.1-20.2 5-29.2-.3-.3-.2-.7-.4-1.1-.5-.4 0-.9.4-1.4.8-9.9 8-24.4 6.8-32.8-2.9-.7-.9-1.6-1.9-2.4-1.7-.4.2-.7.4-1 .7l-19.9 17.8c-.2.2-.3.2-.5.2zm279.3-121c-2 0-3.9-.5-5.7-1.2-2.9-1.2-8.6-3.9-9.8-7.5-3.1 4.1-8.5 5.8-13.5 4.3-3.8-1.3-6.6-4.5-8.9-7.2-5.9 7.3-14.8 11.3-24.2 10.9-.4-.1-.6-.4-.6-.8.1-.3.3-.6.7-.6 9.2.4 18-3.8 23.5-11.1.1-.2.3-.3.5-.3s.4.1.6.2c2.3 2.8 5.1 6.2 8.9 7.5 5.2 1.6 10.9-.9 13.1-5.9.1-.4.6-.5.9-.4.4.1.5.6.4.9-1.6 4.1 7.1 7.9 8.9 8.6 7 2.8 12.3.3 16.7-7.8.1-.2.3-.4.6-.4.2 0 .5.1.6.3 3.9 5.6 11.1 7.7 17.4 5.2.4-.1.8.1.9.4.1.3 0 .7-.3.9-6.5 2.6-14 .7-18.4-4.8-3.5 5.9-7.6 8.8-12.3 8.8zM50.1 235.2c-.4 0-.7-.3-.7-.7 0-.3.2-.6.6-.7 6.5-1.1 12.5-4.2 17.2-8.8.2-.2.4-.2.7-.2.2.1.4.3.5.5 1.3 4.1 5.3 6.7 9.5 6.3 2.4-.3 4.4-1.5 6.6-2.8 1.2-.7 2.4-1.4 3.7-2 .3-.2.8 0 .9.3.1.4 0 .8-.4.9-1.2.6-2.4 1.2-3.6 1.9-2.2 1.5-4.6 2.5-7.1 3-4.5.5-8.8-2.1-10.7-6.2-4.8 4.4-10.8 7.4-17.2 8.5zm118.5 146c-2.1 0-4.3-.3-6.3-.9-.4-.1-.6-.4-.5-.8s.4-.6.8-.5h.1c10 2.9 20.7-2.4 28.9-7.3 1-.8 2.4-.7 3.2.2.2.2.3.4.4.6l.1.1c1.9 2.3 4.7 3.6 7.7 3.5h.1c3.1-.1 6.1-1.1 8.8-2.7 1.4-.8 5.2-2.9 7.3-.5.3.3.3.7 0 1-.3.3-.7.2-1 0-.9-1.1-2.7-.8-5.6.8-2.9 1.7-6.1 2.7-9.4 2.8-3.5.2-6.8-1.4-9-4.1l-.1-.1c-.3-.4-.6-.8-.8-.8-.3 0-.7.1-.9.4-6.8 4-15.3 8.3-23.8 8.3zm106.3-33.7c-1.9 0-3.7-.2-5.6-.6-.4-.1-.6-.5-.5-.8.1-.4.5-.6.8-.5 9.9 2 20.1-1.7 26.5-9.5.2-.2.4-.3.6-.3.2 0 .4.1.5.3 3.4 5.1 10.1 6.9 15.5 4.1.3-.2.8-.1 1 .2.2.3.1.8-.2 1h-.1c-5.8 3-12.9 1.4-16.9-3.8-5.4 6.3-13.3 9.9-21.6 9.9zM404.1 254h-.4c-.4 0-.7-.3-.7-.7 0-.4.3-.7.7-.7 5.9.1 11.6-2.2 15.8-6.4.2-.2.4-.2.6-.2.2 0 .4.2.5.3 3.8 5.9 11.7 7.5 17.5 3.7.3-.2.5-.3.7-.5.3-.3.7-.2 1 0 .3.3.2.7 0 1h-.1c-3.1 2.5-7.1 3.5-11 2.7-3.6-.6-6.8-2.5-9-5.5-4.2 4.1-9.8 6.2-15.6 6.3zm11 125.9c-5.1 0-9.8-2.5-12-6.3-.2-.3-.1-.8.2-1 .3-.2.8-.1 1 .2v.1c2.1 3.7 6.9 5.9 11.8 5.6 4.1-.3 8.4-2.1 12.8-5.5.2-.1.3-.2.5-.1.2 0 .4.2.5.3 1.4 2.2 4.5 2.9 6.8 2.5 2.7-.4 5.3-1.8 7.5-3.1.3-.2.7-.1 1 .2v.1c.2.3.1.8-.2 1-2.4 1.3-5.1 2.9-8 3.3-2.8.5-5.8-.5-7.7-2.6-4.5 3.3-8.8 5.1-13 5.4-.5-.2-.8-.1-1.2-.1zM80.6 329.5c-2.3 0-4.5-.3-6.7-1-5-1.5-9.2-5.1-11.5-9.8-4.3 4.5-10.2 6.9-16.4 6.8-.4 0-.7-.3-.7-.7 0-.4.3-.7.6-.7h.1c6.1.2 12-2.5 16-7.1.2-.2.4-.3.7-.2.2 0 .5.2.5.5 1.9 4.9 6 8.5 11 10 5.1 1.4 10.5 1.2 15.4-.7.4-.1.8.1.9.4.1.4-.1.8-.4.9-3 1-6.3 1.6-9.5 1.6zm297-100.7c-.4 0-.7-.3-.7-.7 0-.3.2-.6.6-.7 4.6-.8 9-2.6 12.8-5.3.6-.5 1.4-.9 2.2-1 .6 0 1.2.2 1.8.5l1.2.6c1.7.9 3.6 1.6 5.5 2.1 2.2.6 4.6.1 6.3-1.4.3-.3.7-.3 1 0s.3.7 0 1c-2.1 1.8-4.9 2.4-7.6 1.7-2-.5-4-1.2-5.8-2.2l-1.2-.6c-.3-.2-.7-.3-1.1-.3-.5.1-1 .3-1.4.7-4 2.8-8.6 4.7-13.5 5.5l-.1.1z" class="st0"/></svg>