<svg xmlns="http://www.w3.org/2000/svg" width="960" height="540" viewBox="0 0 960 540"><path fill="#005ab4" d="m0 163 14.5-17.2C29 128.7 58 94.3 87.2 84.5c29.1-9.8 58.5 4.8 87.6 3.2C204 86 233 68 262 74.2c29 6.1 58 36.5 87 40s58-19.9 87.2-27.9c29.1-8 58.5-.6 87.6-3.3C553 80.3 582 67.7 611 73c29 5.3 58 28.7 87 42.2 29 13.5 58 17.1 87.2 11.8 29.1-5.3 58.5-19.7 87.6-35C902 76.7 931 60.3 945.5 52.2L960 44V0H0Z"/><path fill="#004791" d="m0 206 14.5-18C29 170 58 134 87.2 126c29.1-8 58.5 12 87.6 17.5C204 149 233 140 262 147.2c29 7.1 58 30.5 87 30.5s58-23.4 87.2-36c29.1-12.7 58.5-14.7 87.6-17.5 29.2-2.9 58.2-6.5 87.2 3.5s58 33.6 87 44.5c29 10.8 58 8.8 87.2.6 29.1-8.1 58.5-22.5 87.6-35 29.2-12.5 58.2-23.1 72.7-28.5L960 104V42l-14.5 8.2C931 58.3 902 74.7 872.8 90c-29.1 15.3-58.5 29.7-87.6 35-29.2 5.3-58.2 1.7-87.2-11.8S640 76.3 611 71c-29-5.3-58 7.3-87.2 10-29.1 2.7-58.5-4.7-87.6 3.3-29.2 8-58.2 31.4-87.2 27.9s-58-33.9-87-40C233 66 204 84 174.8 85.7c-29.1 1.6-58.5-13-87.6-3.2C58 92.3 29 126.7 14.5 143.8L0 161Z"/><path fill="#003570" d="m0 255 14.5-19C29 217 58 179 87.2 173.5c29.1-5.5 58.5 21.5 87.6 32.3 29.2 10.9 58.2 5.5 87.2 11.9 29 6.3 58 24.3 87 27 29 2.6 58-10 87.2-15.4 29.1-5.3 58.5-3.3 87.6-9.5 29.2-6.1 58.2-20.5 87.2-18.6 29 1.8 58 19.8 87 36 29 16.1 58 30.5 87.2 25 29.1-5.5 58.5-30.9 87.6-42.5C902 208 931 210 945.5 211l14.5 1V102l-14.5 5.3c-14.5 5.4-43.5 16-72.7 28.5-29.1 12.5-58.5 26.9-87.6 35C756 179 727 181 698 170.2c-29-10.9-58-34.5-87-44.5s-58-6.4-87.2-3.5c-29.1 2.8-58.5 4.8-87.6 17.5-29.2 12.6-58.2 36-87.2 36s-58-23.4-87-30.5c-29-7.2-58 1.8-87.2-3.7-29.1-5.5-58.5-25.5-87.6-17.5-29.2 8-58.2 44-72.7 62L0 204Z"/><path fill="#002450" d="m0 379 14.5 1.8C29 382.7 58 386.3 87.2 399c29.1 12.7 58.5 34.3 87.6 32.5 29.2-1.8 58.2-27.2 87.2-46.2 29-19 58-31.6 87-27.1s58 26.1 87.2 34.3c29.1 8.2 58.5 2.8 87.6 2 29.2-.8 58.2 2.8 87.2-3.5s58-22.7 87-26.3c29-3.7 58 5.3 87.2-3.7 29.1-9 58.5-36 87.6-48.7 29.2-12.6 58.2-11 72.7-10.1l14.5.8v-93l-14.5-1c-14.5-1-43.5-3-72.7 8.7-29.1 11.6-58.5 37-87.6 42.5-29.2 5.5-58.2-8.9-87.2-25-29-16.2-58-34.2-87-36-29-1.9-58 12.5-87.2 18.6-29.1 6.2-58.5 4.2-87.6 9.5-29.2 5.4-58.2 18-87.2 15.4-29-2.7-58-20.7-87-27-29-6.4-58-1-87.2-11.9-29.1-10.8-58.5-37.8-87.6-32.3C58 177 29 215 14.5 234L0 253Z"/><path fill="#001432" d="M0 541H960V301l-14.5-.8c-14.5-.9-43.5-2.5-72.7 10.1-29.1 12.7-58.5 39.7-87.6 48.7-29.2 9-58.2 0-87.2 3.7-29 3.6-58 20-87 26.3-29 6.3-58 2.7-87.2 3.5-29.1.8-58.5 6.2-87.6-2-29.2-8.2-58.2-29.8-87.2-34.3-29-4.5-58 8.1-87 27.1s-58 44.4-87.2 46.2c-29.1 1.8-58.5-19.8-87.6-32.5C58 384.3 29 380.7 14.5 378.8L0 377Z"/></svg>